<?xml version="1.0" encoding="UTF-8" standalone="no"?>
<!-- Generator: Adobe Illustrator 15.1.0, SVG Export Plug-In . SVG Version: 6.00 Build 0)  -->

<svg
   xmlns:dc="http://purl.org/dc/elements/1.1/"
   xmlns:cc="http://creativecommons.org/ns#"
   xmlns:rdf="http://www.w3.org/1999/02/22-rdf-syntax-ns#"
   xmlns:svg="http://www.w3.org/2000/svg"
   xmlns="http://www.w3.org/2000/svg"
   xmlns:sodipodi="http://sodipodi.sourceforge.net/DTD/sodipodi-0.dtd"
   xmlns:inkscape="http://www.inkscape.org/namespaces/inkscape"
   version="1.1"
   id="Layer_1"
   x="0px"
   y="0px"
   width="32px"
   height="32px"
   viewBox="0 0 32 32"
   enable-background="new 0 0 32 32"
   xml:space="preserve"
   inkscape:version="0.48.2 r9819"
   sodipodi:docname="firmamentLogo.svg"
   inkscape:export-filename="C:\devprojects\Firmament.hx\editor\assets\firmamentLogo512.png"
   inkscape:export-xdpi="1440"
   inkscape:export-ydpi="1440"><metadata
   id="metadata3051"><rdf:RDF><cc:Work
       rdf:about=""><dc:format>image/svg+xml</dc:format><dc:type
         rdf:resource="http://purl.org/dc/dcmitype/StillImage" /><dc:title></dc:title></cc:Work></rdf:RDF></metadata><defs
   id="defs3049" /><sodipodi:namedview
   pagecolor="#ffffff"
   bordercolor="#666666"
   borderopacity="1"
   objecttolerance="10"
   gridtolerance="10"
   guidetolerance="10"
   inkscape:pageopacity="0"
   inkscape:pageshadow="2"
   inkscape:window-width="1366"
   inkscape:window-height="706"
   id="namedview3047"
   showgrid="false"
   inkscape:zoom="16.15625"
   inkscape:cx="16"
   inkscape:cy="15.584208"
   inkscape:window-x="-8"
   inkscape:window-y="-8"
   inkscape:window-maximized="1"
   inkscape:current-layer="Layer_1" />
<linearGradient
   id="SVGID_1_"
   gradientUnits="userSpaceOnUse"
   x1="15.9995"
   y1="0.1724"
   x2="15.9995"
   y2="32.0005"
   gradientTransform="matrix(0.99806577,0,0,1.0077788,-7.1245052e-8,-0.1870246)">
	<stop
   offset="0"
   style="stop-color:#FFFFFF"
   id="stop3021" />
	<stop
   offset="0.1639"
   style="stop-color:#FCFCFC"
   id="stop3023" />
	<stop
   offset="0.2946"
   style="stop-color:#F2F2F2"
   id="stop3025" />
	<stop
   offset="0.4137"
   style="stop-color:#E1E1E1"
   id="stop3027" />
	<stop
   offset="0.5261"
   style="stop-color:#C9C9C9"
   id="stop3029" />
	<stop
   offset="0.6338"
   style="stop-color:#ABABAB"
   id="stop3031" />
	<stop
   offset="0.7378"
   style="stop-color:#858585"
   id="stop3033" />
	<stop
   offset="0.839"
   style="stop-color:#585858"
   id="stop3035" />
	<stop
   offset="0.9355"
   style="stop-color:#262626"
   id="stop3037" />
	<stop
   offset="1"
   style="stop-color:#000000"
   id="stop3039" />
</linearGradient>
<rect
   y="-0.013686632"
   width="31.938107"
   height="32.075581"
   id="rect3041"
   style="fill:url(#SVGID_1_)"
   x="6.9358134e-007" />
<g
   id="g3043">
	<path
   d="M12.457,4.584v22.644c-1.261,0-2.765,0.086-4.512,0.258V27.1c0.988-0.301,1.697-0.908,2.127-1.826   c0.43-0.902,0.645-2.377,0.645-4.426V10.235c0-1.948-0.258-3.309-0.773-4.082c-0.53-0.759-1.196-1.231-1.998-1.418V4.327   C9.478,4.456,10.981,4.542,12.457,4.584z M14.971,27.229h-0.859V4.584h5.328c1.547,0,3.588-0.086,6.123-0.258   c-0.015,0.373-0.021,0.859-0.021,1.461c0,0.344,0.021,0.988,0.064,1.934c0.043,1.046,0.064,1.59,0.064,1.633v0.559h-0.451   c-0.401-2.578-1.619-3.867-3.652-3.867h-4.168c-0.473,0-0.896,0.064-1.268,0.193c-0.187,1.132-0.279,2.643-0.279,4.533v4.447h3.76   c1.618,0,2.8-0.2,3.545-0.602c0.73-0.387,1.203-1.081,1.418-2.084h0.473c-0.101,1.547-0.15,2.614-0.15,3.201   c0,0.358,0.021,0.967,0.064,1.826c0.057,0.816,0.086,1.404,0.086,1.762v0.709h-0.473c-0.072-2.262-1.282-3.394-3.631-3.394h-5.092   v4.984c0,3.238,0.988,5.064,2.965,5.479v0.387C16.782,27.314,15.5,27.229,14.971,27.229z"
   id="path3045" />
</g>
</svg>